<svg width="55" height="55" viewBox="0 0 55 55" fill="none" xmlns="http://www.w3.org/2000/svg">
<mask id="mask0_24_33" style="mask-type:alpha" maskUnits="userSpaceOnUse" x="0" y="0" width="55" height="55">
<g clip-path="url(#clip0_24_33)">
<path d="M37.532 44.124C38.3778 44.1232 39.1887 43.7869 39.7868 43.1888C40.3849 42.5907 40.7212 41.7798 40.722 40.934V36.45C42.605 36.3632 44.4525 35.9064 46.159 35.1056C47.8655 34.3048 49.3975 33.1757 50.6676 31.7828C51.9377 30.3899 52.9211 28.7605 53.5615 26.9876C54.2019 25.2147 54.4868 23.333 54.4 21.45C54.3132 19.567 53.8564 17.7195 53.0556 16.013C52.2548 14.3065 51.1257 12.7745 49.7328 11.5044C48.3399 10.2343 46.7105 9.25094 44.9376 8.61054C43.1647 7.97013 41.283 7.6852 39.4 7.772C38.12 5.03072 35.9545 2.80016 33.2522 1.43968C30.55 0.0792007 27.4684 -0.331968 24.504 0.272416C21.5396 0.8768 18.865 2.46154 16.9111 4.77132C14.9571 7.0811 13.8376 9.98142 13.733 13.005C12.1183 12.7386 10.4658 12.8106 8.88041 13.2165C7.29501 13.6225 5.81127 14.3535 4.52331 15.3632C3.23534 16.3728 2.17126 17.6391 1.39855 19.0818C0.625841 20.5244 0.161374 22.1119 0.0346065 23.7435C-0.0921607 25.3752 0.121539 27.0153 0.662151 28.56C1.20276 30.1047 2.05849 31.5202 3.17505 32.7167C4.29161 33.9132 5.64464 34.8645 7.14832 35.5105C8.652 36.1564 10.2735 36.4828 11.91 36.469H13.717V40.935C13.7178 41.7808 14.0541 42.5917 14.6522 43.1898C15.2503 43.7879 16.0612 44.1242 16.907 44.125H25.626V51.249H13.609C13.186 51.249 12.7803 51.417 12.4812 51.7162C12.182 52.0153 12.014 52.421 12.014 52.844C12.014 53.267 12.182 53.6727 12.4812 53.9718C12.7803 54.271 13.186 54.439 13.609 54.439H40.828C41.251 54.439 41.6567 54.271 41.9558 53.9718C42.255 53.6727 42.423 53.267 42.423 52.844C42.423 52.421 42.255 52.0153 41.9558 51.7162C41.6567 51.417 41.251 51.249 40.828 51.249H28.814V44.124H37.532ZM16.905 30.724V23.71H30.727V25.517C30.727 25.94 30.895 26.3457 31.1942 26.6448C31.4933 26.944 31.899 27.112 32.322 27.112C32.745 27.112 33.1507 26.944 33.4498 26.6448C33.749 26.3457 33.917 25.94 33.917 25.517V23.71H37.532V30.727C37.521 30.727 36.414 30.727 16.903 30.727L16.905 30.724ZM3.19 24.667C3.20337 23.2763 3.54994 21.9092 4.20063 20.6801C4.85133 19.4509 5.78721 18.3957 6.9298 17.6029C8.07239 16.8101 9.38839 16.3027 10.7675 16.1233C12.1466 15.944 13.5486 16.0978 14.856 16.572C15.1124 16.6637 15.3879 16.6885 15.6565 16.644C15.9252 16.5994 16.178 16.4871 16.391 16.3176C16.6041 16.1481 16.7704 15.927 16.8742 15.6752C16.9779 15.4235 17.0157 15.1494 16.984 14.879C16.6393 12.3581 17.2399 9.79892 18.6699 7.69452C20.0999 5.59011 22.2583 4.08947 24.7289 3.48177C27.1996 2.87407 29.8078 3.20232 32.0508 4.40327C34.2938 5.60422 36.013 7.59288 36.877 9.986C37.0033 10.3445 37.2531 10.6463 37.5816 10.8374C37.9101 11.0285 38.296 11.0964 38.67 11.029C40.1607 10.8375 41.6747 10.949 43.1213 11.3566C44.5679 11.7642 45.9174 12.4597 47.0888 13.4013C48.2602 14.3429 49.2295 15.5113 49.9385 16.8365C50.6476 18.1616 51.0819 19.6163 51.2154 21.1133C51.3489 22.6103 51.1788 24.1188 50.7153 25.5485C50.2519 26.9782 49.5046 28.2997 48.5183 29.4337C47.5319 30.5677 46.3268 31.4909 44.9751 32.148C43.6235 32.8052 42.1531 33.1827 40.652 33.258C40.5825 32.9289 40.4609 32.6129 40.292 32.322C40.5735 31.8376 40.7216 31.2872 40.721 30.727V23.71C40.7202 22.8642 40.3839 22.0533 39.7858 21.4552C39.1877 20.8571 38.3768 20.5208 37.531 20.52H16.905C16.0592 20.5208 15.2483 20.8571 14.6502 21.4552C14.0521 22.0533 13.7158 22.8642 13.715 23.71V30.727C13.7145 31.2872 13.8625 31.8376 14.144 32.322C13.9712 32.6191 13.8479 32.9423 13.779 33.279H11.908C9.61076 33.2902 7.40286 32.3898 5.76855 30.7754C4.13423 29.1609 3.20692 26.9642 3.19 24.667ZM16.906 33.917H30.727V35.724C30.727 36.147 30.895 36.5527 31.1942 36.8518C31.4933 37.151 31.899 37.319 32.322 37.319C32.745 37.319 33.1507 37.151 33.4498 36.8518C33.749 36.5527 33.917 36.147 33.917 35.724V33.917H37.532C37.532 33.917 37.543 40.934 37.532 40.934H16.905L16.906 33.917Z" fill="url(#paint0_linear_24_33)"/>
</g>
</mask>
<g mask="url(#mask0_24_33)">
<rect width="54" height="54" fill="url(#paint1_linear_24_33)"/>
</g>
<defs>
<linearGradient id="paint0_linear_24_33" x1="27.2072" y1="0.000880241" x2="27.2072" y2="54.439" gradientUnits="userSpaceOnUse">
<stop stop-color="#9F78FF"/>
<stop offset="0.547" stop-color="#F067FF"/>
<stop offset="1" stop-color="#5C33C2"/>
</linearGradient>
<linearGradient id="paint1_linear_24_33" x1="27" y1="0" x2="27" y2="54" gradientUnits="userSpaceOnUse">
<stop stop-color="#88C9EC"/>
<stop offset="1" stop-color="#BEEABC"/>
</linearGradient>
<clipPath id="clip0_24_33">
<rect width="54.437" height="54.437" fill="white"/>
</clipPath>
</defs>
</svg>
