<svg width="67" height="55" viewBox="0 0 67 55" fill="none" xmlns="http://www.w3.org/2000/svg">
<mask id="mask0_24_20" style="mask-type:alpha" maskUnits="userSpaceOnUse" x="0" y="0" width="67" height="55">
<g clip-path="url(#clip0_24_20)">
<path d="M67 6.02C66.9984 4.42388 66.3637 2.8936 65.235 1.76497C64.1064 0.636348 62.5761 0.00158844 60.98 0H6.02C4.42389 0.00158844 2.8936 0.636348 1.76497 1.76497C0.636348 2.8936 0.00158968 4.42388 1.24509e-06 6.02V17.012C-0.00092786 18.454 0.518155 19.8479 1.462 20.938C0.51838 22.0279 -0.000687205 23.4214 1.24509e-06 24.863V35.855C0.00158968 37.4511 0.636348 38.9814 1.76497 40.11C2.8936 41.2387 4.42389 41.8734 6.02 41.875H27.22V50.25H14.656C14.1006 50.25 13.568 50.4706 13.1753 50.8633C12.7826 51.256 12.562 51.7886 12.562 52.344C12.562 52.8994 12.7826 53.432 13.1753 53.8247C13.568 54.2174 14.1006 54.438 14.656 54.438H52.344C52.8994 54.438 53.432 54.2174 53.8247 53.8247C54.2174 53.432 54.438 52.8994 54.438 52.344C54.438 51.7886 54.2174 51.256 53.8247 50.8633C53.432 50.4706 52.8994 50.25 52.344 50.25H39.781V41.875H60.981C62.5769 41.8731 64.107 41.2383 65.2354 40.1097C66.3638 38.9811 66.9984 37.4509 67 35.855V24.863C67.0009 23.421 66.4818 22.0271 65.538 20.937C66.4816 19.8471 67.0007 18.4536 67 17.012V6.02ZM4.188 6.02C4.18853 5.53429 4.38171 5.06862 4.72517 4.72517C5.06862 4.38171 5.53429 4.18853 6.02 4.188H60.98C61.4657 4.18853 61.9314 4.38171 62.2748 4.72517C62.6183 5.06862 62.8115 5.53429 62.812 6.02V17.012C62.8115 17.4977 62.6183 17.9634 62.2748 18.3068C61.9314 18.6503 61.4657 18.8435 60.98 18.844H6.02C5.53429 18.8435 5.06862 18.6503 4.72517 18.3068C4.38171 17.9634 4.18853 17.4977 4.188 17.012V6.02ZM35.594 50.25H31.406V41.875H35.594V50.25ZM62.813 35.855C62.8125 36.3407 62.6193 36.8064 62.2758 37.1498C61.9324 37.4933 61.4667 37.6865 60.981 37.687H6.02C5.53429 37.6865 5.06862 37.4933 4.72517 37.1498C4.38171 36.8064 4.18853 36.3407 4.188 35.855V24.863C4.18853 24.3773 4.38171 23.9116 4.72517 23.5682C5.06862 23.2247 5.53429 23.0315 6.02 23.031H60.98C61.4657 23.0315 61.9314 23.2247 62.2748 23.5682C62.6183 23.9116 62.8115 24.3773 62.812 24.863L62.813 35.855Z" fill="url(#paint0_linear_24_20)"/>
<path d="M14.657 14.656C14.0358 14.656 13.4285 14.4718 12.912 14.1266C12.3954 13.7815 11.9928 13.291 11.7551 12.717C11.5174 12.1431 11.4552 11.5115 11.5764 10.9022C11.6976 10.2929 11.9967 9.73325 12.436 9.29397C12.8753 8.8547 13.4349 8.55555 14.0442 8.43436C14.6535 8.31316 15.2851 8.37536 15.859 8.6131C16.433 8.85083 16.9235 9.25341 17.2687 9.76995C17.6138 10.2865 17.798 10.8938 17.798 11.515C17.7972 12.3478 17.466 13.1463 16.8772 13.7351C16.2883 14.324 15.4898 14.6552 14.657 14.656Z" fill="url(#paint1_linear_24_20)"/>
<path d="M14.657 33.5C14.0358 33.5 13.4285 33.3158 12.912 32.9707C12.3954 32.6255 11.9928 32.135 11.7551 31.561C11.5174 30.9871 11.4552 30.3555 11.5764 29.7462C11.6976 29.1369 11.9967 28.5773 12.436 28.138C12.8753 27.6987 13.4349 27.3996 14.0442 27.2784C14.6535 27.1572 15.2851 27.2194 15.859 27.4571C16.433 27.6948 16.9235 28.0974 17.2687 28.614C17.6138 29.1305 17.798 29.7378 17.798 30.359C17.7972 31.1918 17.466 31.9903 16.8772 32.5791C16.2883 33.168 15.4898 33.4992 14.657 33.5Z" fill="url(#paint2_linear_24_20)"/>
<path d="M53.39 13.61H24.078C23.5307 13.598 23.0098 13.3722 22.627 12.9809C22.2441 12.5896 22.0298 12.0639 22.0298 11.5165C22.0298 10.9691 22.2441 10.4434 22.627 10.0521C23.0098 9.66078 23.5307 9.43496 24.078 9.423H53.39C53.9454 9.423 54.478 9.64362 54.8707 10.0363C55.2634 10.429 55.484 10.9616 55.484 11.517C55.484 12.0724 55.2634 12.605 54.8707 12.9977C54.478 13.3904 53.9454 13.61 53.39 13.61Z" fill="url(#paint3_linear_24_20)"/>
<path d="M53.39 32.454H24.078C23.5307 32.442 23.0098 32.2162 22.627 31.8249C22.2441 31.4336 22.0298 30.908 22.0298 30.3605C22.0298 29.8131 22.2441 29.2874 22.627 28.8961C23.0098 28.5048 23.5307 28.279 24.078 28.267H53.39C53.665 28.267 53.9373 28.3212 54.1913 28.4264C54.4454 28.5316 54.6762 28.6859 54.8707 28.8803C55.0651 29.0748 55.2194 29.3056 55.3246 29.5597C55.4298 29.8137 55.484 30.086 55.484 30.361C55.484 30.636 55.4298 30.9083 55.3246 31.1623C55.2194 31.4164 55.0651 31.6472 54.8707 31.8417C54.6762 32.0361 54.4454 32.1904 54.1913 32.2956C53.9373 32.4008 53.665 32.455 53.39 32.455V32.454Z" fill="url(#paint4_linear_24_20)"/>
</g>
</mask>
<g mask="url(#mask0_24_20)">
<path d="M0 0H67V54.44H0V0Z" fill="url(#paint5_linear_24_20)"/>
</g>
<defs>
<linearGradient id="paint0_linear_24_20" x1="33.5" y1="0" x2="33.5" y2="54.438" gradientUnits="userSpaceOnUse">
<stop stop-color="#9F78FF"/>
<stop offset="0.547" stop-color="#F067FF"/>
<stop offset="1" stop-color="#5C33C2"/>
</linearGradient>
<linearGradient id="paint1_linear_24_20" x1="14.657" y1="8.374" x2="14.657" y2="14.656" gradientUnits="userSpaceOnUse">
<stop stop-color="#9F78FF"/>
<stop offset="0.547" stop-color="#F067FF"/>
<stop offset="1" stop-color="#5C33C2"/>
</linearGradient>
<linearGradient id="paint2_linear_24_20" x1="14.657" y1="27.218" x2="14.657" y2="33.5" gradientUnits="userSpaceOnUse">
<stop stop-color="#9F78FF"/>
<stop offset="0.547" stop-color="#F067FF"/>
<stop offset="1" stop-color="#5C33C2"/>
</linearGradient>
<linearGradient id="paint3_linear_24_20" x1="38.7569" y1="9.423" x2="38.7569" y2="13.611" gradientUnits="userSpaceOnUse">
<stop stop-color="#9F78FF"/>
<stop offset="0.547" stop-color="#F067FF"/>
<stop offset="1" stop-color="#5C33C2"/>
</linearGradient>
<linearGradient id="paint4_linear_24_20" x1="38.7569" y1="28.267" x2="38.7569" y2="32.455" gradientUnits="userSpaceOnUse">
<stop stop-color="#9F78FF"/>
<stop offset="0.547" stop-color="#F067FF"/>
<stop offset="1" stop-color="#5C33C2"/>
</linearGradient>
<linearGradient id="paint5_linear_24_20" x1="33.5" y1="0" x2="33.5" y2="54.44" gradientUnits="userSpaceOnUse">
<stop stop-color="#88C9EC"/>
<stop offset="1" stop-color="#BEEABC"/>
</linearGradient>
<clipPath id="clip0_24_20">
<rect width="67" height="54.438" fill="white"/>
</clipPath>
</defs>
</svg>
