<svg width="62" height="55" viewBox="0 0 62 55" fill="none" xmlns="http://www.w3.org/2000/svg">
<mask id="mask0_24_35" style="mask-type:alpha" maskUnits="userSpaceOnUse" x="0" y="0" width="62" height="55">
<g clip-path="url(#clip0_24_35)">
<path d="M7.542 7.006H11.119V10.556H7.542V7.006Z" fill="url(#paint0_linear_24_35)"/>
<path d="M15.342 7.006H18.919V10.556H15.342V7.006Z" fill="url(#paint1_linear_24_35)"/>
<path d="M7.542 20.999H11.119V24.549H7.542V20.999Z" fill="url(#paint2_linear_24_35)"/>
<path d="M15.342 20.999H18.919V24.549H15.342V20.999Z" fill="url(#paint3_linear_24_35)"/>
<path d="M7.542 34.989H11.119V38.539H7.542V34.989Z" fill="url(#paint4_linear_24_35)"/>
<path d="M15.342 34.989H18.919V38.539H15.342V34.989Z" fill="url(#paint5_linear_24_35)"/>
<path d="M50.975 9.12V-4.76837e-07H0V45.548H23.7V50.86H0V54.437H50.98V50.86H27.28V45.548H50.98V38.129C53.9182 37.1246 56.4687 35.2264 58.2743 32.7001C60.0799 30.1739 61.0501 27.1462 61.049 24.041V14.405L50.975 9.12ZM3.577 3.577H47.4V9.12L38.115 13.991H3.577V3.577ZM3.577 17.567H37.323V24.041C37.3247 25.3725 37.5054 26.6976 37.86 27.981H3.577V17.567ZM3.577 41.967V31.558H39.364C39.7121 32.1577 40.1021 32.7321 40.531 33.277C42.3096 35.5181 44.6935 37.2023 47.4 38.13V41.972H3.577V41.967ZM57.472 24.037C57.4781 26.5113 56.6701 28.9188 55.1728 30.8886C53.6754 32.8584 51.5717 34.2809 49.186 34.937C46.8003 34.2809 44.6966 32.8584 43.1992 30.8886C41.7019 28.9188 40.8939 26.5113 40.9 24.037V16.567L49.186 12.22L57.472 16.567V24.037Z" fill="url(#paint6_linear_24_35)"/>
<path d="M45.903 21.418L43.39 23.964L48.248 28.758L54.986 22.018L52.457 19.489L48.228 23.717L45.903 21.418Z" fill="url(#paint7_linear_24_35)"/>
</g>
</mask>
<g mask="url(#mask0_24_35)">
<rect width="61" height="54" fill="url(#paint8_linear_24_35)"/>
</g>
<defs>
<linearGradient id="paint0_linear_24_35" x1="9.3305" y1="7.006" x2="9.3305" y2="10.556" gradientUnits="userSpaceOnUse">
<stop stop-color="#9F78FF"/>
<stop offset="0.547" stop-color="#F067FF"/>
<stop offset="1" stop-color="#5C33C2"/>
</linearGradient>
<linearGradient id="paint1_linear_24_35" x1="17.1305" y1="7.006" x2="17.1305" y2="10.556" gradientUnits="userSpaceOnUse">
<stop stop-color="#9F78FF"/>
<stop offset="0.547" stop-color="#F067FF"/>
<stop offset="1" stop-color="#5C33C2"/>
</linearGradient>
<linearGradient id="paint2_linear_24_35" x1="9.3305" y1="20.999" x2="9.3305" y2="24.549" gradientUnits="userSpaceOnUse">
<stop stop-color="#9F78FF"/>
<stop offset="0.547" stop-color="#F067FF"/>
<stop offset="1" stop-color="#5C33C2"/>
</linearGradient>
<linearGradient id="paint3_linear_24_35" x1="17.1305" y1="20.999" x2="17.1305" y2="24.549" gradientUnits="userSpaceOnUse">
<stop stop-color="#9F78FF"/>
<stop offset="0.547" stop-color="#F067FF"/>
<stop offset="1" stop-color="#5C33C2"/>
</linearGradient>
<linearGradient id="paint4_linear_24_35" x1="9.3305" y1="34.989" x2="9.3305" y2="38.539" gradientUnits="userSpaceOnUse">
<stop stop-color="#9F78FF"/>
<stop offset="0.547" stop-color="#F067FF"/>
<stop offset="1" stop-color="#5C33C2"/>
</linearGradient>
<linearGradient id="paint5_linear_24_35" x1="17.1305" y1="34.989" x2="17.1305" y2="38.539" gradientUnits="userSpaceOnUse">
<stop stop-color="#9F78FF"/>
<stop offset="0.547" stop-color="#F067FF"/>
<stop offset="1" stop-color="#5C33C2"/>
</linearGradient>
<linearGradient id="paint6_linear_24_35" x1="30.5245" y1="-4.76837e-07" x2="30.5245" y2="54.437" gradientUnits="userSpaceOnUse">
<stop stop-color="#9F78FF"/>
<stop offset="0.547" stop-color="#F067FF"/>
<stop offset="1" stop-color="#5C33C2"/>
</linearGradient>
<linearGradient id="paint7_linear_24_35" x1="49.188" y1="19.489" x2="49.188" y2="28.758" gradientUnits="userSpaceOnUse">
<stop stop-color="#9F78FF"/>
<stop offset="0.547" stop-color="#F067FF"/>
<stop offset="1" stop-color="#5C33C2"/>
</linearGradient>
<linearGradient id="paint8_linear_24_35" x1="30.5" y1="0" x2="30.5" y2="54" gradientUnits="userSpaceOnUse">
<stop stop-color="#88C9EC"/>
<stop offset="1" stop-color="#BEEABC"/>
</linearGradient>
<clipPath id="clip0_24_35">
<rect width="61.049" height="54.438" fill="white"/>
</clipPath>
</defs>
</svg>
