<svg width="55" height="55" viewBox="0 0 55 55" fill="none" xmlns="http://www.w3.org/2000/svg">
<mask id="mask0_17_44" style="mask-type:alpha" maskUnits="userSpaceOnUse" x="0" y="0" width="55" height="55">
<g clip-path="url(#clip0_17_44)">
<path d="M0 16.119H3.287V19.3H0V35.207H3.287V38.388H0V54.295H54.295V38.388H51.007V35.207H54.294V19.3H51.007V16.119H54.294V0H0V16.119ZM51.114 51.114H3.181V41.57H51.114V51.114ZM47.826 38.388H6.469V35.207H47.826V38.388ZM51.113 32.025H3.181V22.481H51.114L51.113 32.025ZM47.826 19.3H6.469V16.119H47.826V19.3ZM3.181 3.181H51.114V12.937H3.181V3.181Z" fill="url(#paint0_linear_17_44)"/>
<path d="M6.46899 6.575H9.64999V9.756H6.46899V6.575Z" fill="url(#paint1_linear_17_44)"/>
<path d="M12.831 6.575H16.012V9.756H12.831V6.575Z" fill="url(#paint2_linear_17_44)"/>
<path d="M19.194 6.575H22.375V9.756H19.194V6.575Z" fill="url(#paint3_linear_17_44)"/>
<path d="M31.919 6.575H47.826V9.756H31.919V6.575Z" fill="url(#paint4_linear_17_44)"/>
<path d="M6.46899 25.663H9.64999V28.844H6.46899V25.663Z" fill="url(#paint5_linear_17_44)"/>
<path d="M12.831 25.663H16.012V28.844H12.831V25.663Z" fill="url(#paint6_linear_17_44)"/>
<path d="M19.194 25.663H22.375V28.844H19.194V25.663Z" fill="url(#paint7_linear_17_44)"/>
<path d="M31.919 25.663H47.826V28.844H31.919V25.663Z" fill="url(#paint8_linear_17_44)"/>
<path d="M6.46899 44.751H9.64999V47.932H6.46899V44.751Z" fill="url(#paint9_linear_17_44)"/>
<path d="M12.831 44.751H16.012V47.932H12.831V44.751Z" fill="url(#paint10_linear_17_44)"/>
<path d="M19.194 44.751H22.375V47.932H19.194V44.751Z" fill="url(#paint11_linear_17_44)"/>
<path d="M31.919 44.751H47.826V47.932H31.919V44.751Z" fill="url(#paint12_linear_17_44)"/>
</g>
</mask>
<g mask="url(#mask0_17_44)">
<rect width="54" height="54" fill="url(#paint13_linear_17_44)"/>
</g>
<defs>
<linearGradient id="paint0_linear_17_44" x1="27.1475" y1="0" x2="27.1475" y2="54.295" gradientUnits="userSpaceOnUse">
<stop stop-color="#9F78FF"/>
<stop offset="1" stop-color="#F067FF"/>
</linearGradient>
<linearGradient id="paint1_linear_17_44" x1="8.05949" y1="6.575" x2="8.05949" y2="9.756" gradientUnits="userSpaceOnUse">
<stop stop-color="#9F78FF"/>
<stop offset="1" stop-color="#F067FF"/>
</linearGradient>
<linearGradient id="paint2_linear_17_44" x1="14.4215" y1="6.575" x2="14.4215" y2="9.756" gradientUnits="userSpaceOnUse">
<stop stop-color="#9F78FF"/>
<stop offset="1" stop-color="#F067FF"/>
</linearGradient>
<linearGradient id="paint3_linear_17_44" x1="20.7845" y1="6.575" x2="20.7845" y2="9.756" gradientUnits="userSpaceOnUse">
<stop stop-color="#9F78FF"/>
<stop offset="1" stop-color="#F067FF"/>
</linearGradient>
<linearGradient id="paint4_linear_17_44" x1="39.8725" y1="6.575" x2="39.8725" y2="9.756" gradientUnits="userSpaceOnUse">
<stop stop-color="#9F78FF"/>
<stop offset="1" stop-color="#F067FF"/>
</linearGradient>
<linearGradient id="paint5_linear_17_44" x1="8.05949" y1="25.663" x2="8.05949" y2="28.844" gradientUnits="userSpaceOnUse">
<stop stop-color="#9F78FF"/>
<stop offset="1" stop-color="#F067FF"/>
</linearGradient>
<linearGradient id="paint6_linear_17_44" x1="14.4215" y1="25.663" x2="14.4215" y2="28.844" gradientUnits="userSpaceOnUse">
<stop stop-color="#9F78FF"/>
<stop offset="1" stop-color="#F067FF"/>
</linearGradient>
<linearGradient id="paint7_linear_17_44" x1="20.7845" y1="25.663" x2="20.7845" y2="28.844" gradientUnits="userSpaceOnUse">
<stop stop-color="#9F78FF"/>
<stop offset="1" stop-color="#F067FF"/>
</linearGradient>
<linearGradient id="paint8_linear_17_44" x1="39.8725" y1="25.663" x2="39.8725" y2="28.844" gradientUnits="userSpaceOnUse">
<stop stop-color="#9F78FF"/>
<stop offset="1" stop-color="#F067FF"/>
</linearGradient>
<linearGradient id="paint9_linear_17_44" x1="8.05949" y1="44.751" x2="8.05949" y2="47.932" gradientUnits="userSpaceOnUse">
<stop stop-color="#9F78FF"/>
<stop offset="1" stop-color="#F067FF"/>
</linearGradient>
<linearGradient id="paint10_linear_17_44" x1="14.4215" y1="44.751" x2="14.4215" y2="47.932" gradientUnits="userSpaceOnUse">
<stop stop-color="#9F78FF"/>
<stop offset="1" stop-color="#F067FF"/>
</linearGradient>
<linearGradient id="paint11_linear_17_44" x1="20.7845" y1="44.751" x2="20.7845" y2="47.932" gradientUnits="userSpaceOnUse">
<stop stop-color="#9F78FF"/>
<stop offset="1" stop-color="#F067FF"/>
</linearGradient>
<linearGradient id="paint12_linear_17_44" x1="39.8725" y1="44.751" x2="39.8725" y2="47.932" gradientUnits="userSpaceOnUse">
<stop stop-color="#9F78FF"/>
<stop offset="1" stop-color="#F067FF"/>
</linearGradient>
<linearGradient id="paint13_linear_17_44" x1="8" y1="-15" x2="48.5" y2="69" gradientUnits="userSpaceOnUse">
<stop stop-color="#4CC346"/>
<stop offset="0.0001" stop-color="#88C9EC"/>
<stop offset="1" stop-color="#BEEABC"/>
</linearGradient>
<clipPath id="clip0_17_44">
<rect width="54.295" height="54.295" fill="white"/>
</clipPath>
</defs>
</svg>
