<svg width="1503" height="678" viewBox="0 0 1503 678" fill="none" xmlns="http://www.w3.org/2000/svg">
<g clip-path="url(#clip0_2_15)">
<rect width="1503" height="678" rx="30" fill="url(#paint0_linear_2_15)"/>
<g filter="url(#filter0_f_2_15)">
<ellipse cx="1338.39" cy="929.138" rx="366.002" ry="362.846" fill="#BEEABC"/>
</g>
<ellipse cx="762.5" cy="339.5" rx="686.5" ry="680.5" fill="#88C9EC" fill-opacity="0.3"/>
<path d="M1448 339.5C1448 714.769 1141.1 1019 762.5 1019C383.901 1019 77 714.769 77 339.5C77 -35.7692 383.901 -340 762.5 -340C1141.1 -340 1448 -35.7692 1448 339.5Z" stroke="white" stroke-opacity="0.5" stroke-width="2"/>
<ellipse cx="762.5" cy="339.5" rx="566.14" ry="561.192" fill="#88C9EC" fill-opacity="0.3"/>
<path d="M1327.64 339.5C1327.64 648.877 1074.63 899.692 762.5 899.692C450.373 899.692 197.36 648.877 197.36 339.5C197.36 30.1227 450.373 -220.692 762.5 -220.692C1074.63 -220.692 1327.64 30.1227 1327.64 339.5Z" stroke="white" stroke-opacity="0.5" stroke-width="2"/>
<ellipse cx="762.5" cy="339.5" rx="465.843" ry="461.771" fill="#88C9EC" fill-opacity="0.3"/>
<path d="M1227.34 339.5C1227.34 593.969 1019.23 800.271 762.5 800.271C505.766 800.271 297.657 593.969 297.657 339.5C297.657 85.0313 505.766 -121.271 762.5 -121.271C1019.23 -121.271 1227.34 85.0313 1227.34 339.5Z" stroke="white" stroke-opacity="0.5" stroke-width="2"/>
<ellipse cx="762.5" cy="339.5" rx="377.744" ry="374.443" fill="#88C9EC" fill-opacity="0.3"/>
<path d="M1139.24 339.5C1139.24 545.738 970.578 712.943 762.5 712.943C554.422 712.943 385.756 545.738 385.756 339.5C385.756 133.262 554.422 -33.9426 762.5 -33.9426C970.578 -33.9426 1139.24 133.262 1139.24 339.5Z" stroke="white" stroke-opacity="0.5" stroke-width="2"/>
<ellipse cx="762.5" cy="339.5" rx="273.857" ry="271.463" fill="#88C9EC" fill-opacity="0.3"/>
<path d="M1035.36 339.5C1035.36 488.864 913.203 609.963 762.5 609.963C611.797 609.963 489.643 488.864 489.643 339.5C489.643 190.135 611.797 69.0366 762.5 69.0366C913.203 69.0366 1035.36 190.135 1035.36 339.5Z" stroke="white" stroke-opacity="0.5" stroke-width="2"/>
<ellipse cx="762.5" cy="339.5" rx="148.099" ry="146.805" fill="#88C9EC" fill-opacity="0.5"/>
<path d="M909.599 339.5C909.599 420.018 843.749 485.305 762.5 485.305C681.251 485.305 615.401 420.018 615.401 339.5C615.401 258.983 681.251 193.695 762.5 193.695C843.749 193.695 909.599 258.983 909.599 339.5Z" stroke="white" stroke-opacity="0.5" stroke-width="2"/>
<path d="M-542 738.031C-302.623 587.313 434.085 377.776 282.519 511.953C-25.385 784.534 430.54 823.841 1018.68 639.482" stroke="url(#paint1_linear_2_15)"/>
<path d="M432 348.031C671.377 197.313 1408.08 -12.2239 1256.52 121.953C948.615 394.534 1404.54 433.841 1992.68 249.482" stroke="url(#paint2_linear_2_15)"/>
<path d="M663 359.25V298H688.162C692.662 298 696.724 298.758 700.348 300.275C704.03 301.733 707.186 303.833 709.817 306.575C712.505 309.258 714.551 312.467 715.954 316.2C717.356 319.933 718.058 324.075 718.058 328.625C718.058 333.117 717.356 337.258 715.954 341.05C714.551 344.783 712.534 348.021 709.904 350.763C707.274 353.446 704.118 355.546 700.436 357.063C696.754 358.521 692.662 359.25 688.162 359.25H663ZM676.151 349.713L674.748 347.438H687.723C690.354 347.438 692.721 347 694.825 346.125C696.929 345.192 698.712 343.938 700.173 342.363C701.692 340.729 702.832 338.746 703.592 336.413C704.352 334.079 704.732 331.483 704.732 328.625C704.732 325.767 704.352 323.2 703.592 320.925C702.832 318.592 701.692 316.608 700.173 314.975C698.712 313.342 696.929 312.088 694.825 311.213C692.721 310.279 690.354 309.813 687.723 309.813H674.485L676.151 307.712V349.713Z" fill="black"/>
<path d="M726.445 359.25V312.963H738.456L738.895 327.837L736.791 324.775C737.492 322.383 738.632 320.225 740.21 318.3C741.788 316.317 743.629 314.771 745.733 313.663C747.896 312.554 750.146 312 752.484 312C753.477 312 754.442 312.088 755.377 312.263C756.312 312.438 757.101 312.642 757.744 312.875L754.413 326.525C753.711 326.175 752.864 325.883 751.87 325.65C750.877 325.358 749.854 325.213 748.802 325.213C747.399 325.213 746.084 325.475 744.856 326C743.687 326.467 742.665 327.167 741.788 328.1C740.911 328.975 740.21 330.025 739.684 331.25C739.216 332.475 738.982 333.817 738.982 335.275V359.25H726.445Z" fill="black"/>
<path d="M813.394 378.5V312.963H825.405L825.756 323.375L823.477 322.588C823.886 320.721 824.879 319 826.457 317.425C828.094 315.85 830.11 314.567 832.507 313.575C834.903 312.583 837.416 312.088 840.046 312.088C844.079 312.088 847.645 313.138 850.742 315.238C853.899 317.279 856.383 320.108 858.195 323.725C860.065 327.283 861 331.396 861 336.063C861 340.671 860.094 344.783 858.282 348.4C856.47 352.017 853.986 354.875 850.83 356.975C847.674 359.017 844.079 360.038 840.046 360.038C837.358 360.038 834.786 359.542 832.331 358.55C829.935 357.5 827.889 356.129 826.194 354.438C824.499 352.746 823.447 350.938 823.038 349.013L825.931 347.788V378.5H813.394ZM837.241 349.363C839.52 349.363 841.537 348.808 843.29 347.7C845.044 346.592 846.417 345.046 847.411 343.063C848.405 341.021 848.901 338.688 848.901 336.063C848.901 333.438 848.405 331.133 847.411 329.15C846.417 327.167 845.044 325.621 843.29 324.513C841.595 323.404 839.579 322.85 837.241 322.85C834.903 322.85 832.857 323.404 831.104 324.513C829.351 325.563 827.977 327.108 826.983 329.15C825.99 331.133 825.493 333.438 825.493 336.063C825.493 338.688 825.99 341.021 826.983 343.063C827.977 345.046 829.351 346.592 831.104 347.7C832.857 348.808 834.903 349.363 837.241 349.363Z" fill="black"/>
<path d="M777.536 382C772.802 382 768.564 380.979 764.824 378.938C761.141 376.838 758.219 373.979 756.056 370.363C753.952 366.746 752.9 362.604 752.9 357.938C752.9 353.271 753.952 349.158 756.056 345.6C758.219 341.983 761.141 339.125 764.824 337.025C768.564 334.925 772.802 333.875 777.536 333.875C782.212 333.875 786.391 334.925 790.073 337.025C793.814 339.125 796.736 341.983 798.84 345.6C800.944 349.158 801.996 353.271 801.996 357.938C801.996 362.604 800.944 366.746 798.84 370.363C796.736 373.979 793.814 376.838 790.073 378.938C786.391 380.979 782.212 382 777.536 382ZM777.536 371.15C779.815 371.15 781.861 370.596 783.673 369.488C785.485 368.321 786.888 366.746 787.881 364.762C788.933 362.721 789.459 360.446 789.459 357.938C789.459 355.371 788.933 353.096 787.881 351.113C786.888 349.071 785.485 347.496 783.673 346.388C781.861 345.221 779.815 344.638 777.536 344.638C775.198 344.638 773.123 345.221 771.311 346.388C769.499 347.554 768.067 349.129 767.015 351.113C765.963 353.096 765.467 355.371 765.525 357.938C765.467 360.446 765.963 362.721 767.015 364.762C768.067 366.746 769.499 368.321 771.311 369.488C773.123 370.596 775.198 371.15 777.536 371.15Z" fill="white"/>
</g>
<defs>
<filter id="filter0_f_2_15" x="472.385" y="66.2921" width="1732" height="1725.69" filterUnits="userSpaceOnUse" color-interpolation-filters="sRGB">
<feFlood flood-opacity="0" result="BackgroundImageFix"/>
<feBlend mode="normal" in="SourceGraphic" in2="BackgroundImageFix" result="shape"/>
<feGaussianBlur stdDeviation="250" result="effect1_foregroundBlur_2_15"/>
</filter>
<linearGradient id="paint0_linear_2_15" x1="142.205" y1="140.926" x2="683.682" y2="941.162" gradientUnits="userSpaceOnUse">
<stop stop-color="#3768CE"/>
<stop offset="1" stop-color="#88C9EC"/>
</linearGradient>
<linearGradient id="paint1_linear_2_15" x1="159.136" y1="276.992" x2="224.482" y2="816.096" gradientUnits="userSpaceOnUse">
<stop stop-color="white"/>
<stop offset="1" stop-color="white" stop-opacity="0"/>
</linearGradient>
<linearGradient id="paint2_linear_2_15" x1="1068.67" y1="6.48166" x2="1089.09" y2="261.739" gradientUnits="userSpaceOnUse">
<stop stop-color="white"/>
<stop offset="1" stop-color="white" stop-opacity="0"/>
</linearGradient>
<clipPath id="clip0_2_15">
<rect width="1503" height="678" rx="30" fill="white"/>
</clipPath>
</defs>
</svg>
