<svg width="109" height="48" viewBox="0 0 109 48" fill="none" xmlns="http://www.w3.org/2000/svg">
<g clip-path="url(#clip0_27_42)">
<path d="M1.36463 34.5886V1.52184H14.9373C17.365 1.52184 19.5562 1.93123 21.5108 2.75002C23.4972 3.53733 25.1997 4.67106 26.6183 6.15119C28.0686 7.59982 29.1721 9.33188 29.9289 11.3474C30.6855 13.3629 31.0638 15.5988 31.0638 18.0552C31.0638 20.4802 30.6855 22.716 29.9289 24.763C29.1721 26.7786 28.0845 28.5263 26.6656 30.0066C25.2469 31.4551 23.5445 32.5888 21.5581 33.4076C19.5719 34.1949 17.365 34.5886 14.9373 34.5886H1.36463ZM8.45838 29.4397L7.70172 28.2114H14.7009C16.1197 28.2114 17.3966 27.9752 18.5315 27.5029C19.6666 26.999 20.6281 26.3219 21.4163 25.4715C22.236 24.5898 22.8508 23.5192 23.2607 22.2594C23.6705 20.9997 23.8755 19.5983 23.8755 18.0552C23.8755 16.5121 23.6705 15.1265 23.2607 13.8982C22.8508 12.6386 22.236 11.5678 21.4163 10.6861C20.6281 9.80427 19.6666 9.12718 18.5315 8.65481C17.3966 8.15094 16.1197 7.899 14.7009 7.899H7.55983L8.45838 6.76528V29.4397Z" fill="black"/>
<path d="M35.5883 34.5886V9.59957H42.0672L42.3037 17.6301L41.1686 15.9768C41.5471 14.6856 42.1619 13.5204 43.013 12.4811C43.8643 11.4104 44.8575 10.5758 45.9925 9.97748C47.1589 9.37913 48.3729 9.07996 49.6339 9.07996C50.1699 9.07996 50.6901 9.1272 51.1946 9.22168C51.699 9.31614 52.1246 9.42636 52.4715 9.55234L50.6743 16.9215C50.296 16.7325 49.8388 16.5751 49.3029 16.4491C48.767 16.2916 48.2151 16.213 47.6477 16.213C46.8909 16.213 46.1816 16.3546 45.5195 16.6381C44.8889 16.89 44.3372 17.268 43.8643 17.7717C43.3913 18.2442 43.013 18.8111 42.7293 19.4724C42.4771 20.1337 42.351 20.8581 42.351 21.6454V34.5886H35.5883Z" fill="black"/>
<path d="M82.4902 44.981V9.59957H88.9692L89.1582 15.2209L87.9288 14.7958C88.1495 13.788 88.6854 12.859 89.5367 12.0087C90.4195 11.1584 91.5071 10.4656 92.7998 9.93025C94.0923 9.39487 95.4481 9.12718 96.8668 9.12718C99.0422 9.12718 100.966 9.69405 102.636 10.8278C104.339 11.93 105.679 13.4574 106.656 15.4099C107.665 17.3308 108.17 19.551 108.17 22.0705C108.17 24.5584 107.681 26.7786 106.703 28.7311C105.726 30.6835 104.386 32.2268 102.684 33.3604C100.981 34.4626 99.0422 35.0137 96.8668 35.0137C95.4166 35.0137 94.0294 34.746 92.7051 34.2107C91.4126 33.6438 90.3091 32.9037 89.3947 31.9905C88.4805 31.0772 87.913 30.101 87.6923 29.0618L89.2529 28.4005V44.981H82.4902ZM95.3536 29.2506C96.5832 29.2506 97.6708 28.9516 98.6167 28.3531C99.5625 27.7548 100.303 26.9202 100.839 25.8496C101.375 24.7474 101.643 23.4876 101.643 22.0705C101.643 20.6533 101.375 19.4094 100.839 18.3386C100.303 17.268 99.5625 16.4334 98.6167 15.835C97.7023 15.2367 96.6146 14.9375 95.3536 14.9375C94.0923 14.9375 92.9889 15.2367 92.043 15.835C91.0972 16.4019 90.3564 17.2364 89.8203 18.3386C89.2844 19.4094 89.0164 20.6533 89.0164 22.0705C89.0164 23.4876 89.2844 24.7474 89.8203 25.8496C90.3564 26.9202 91.0972 27.7548 92.043 28.3531C92.9889 28.9516 94.0923 29.2506 95.3536 29.2506Z" fill="black"/>
<path d="M63.1475 46.8705C60.5938 46.8705 58.308 46.3194 56.2903 45.2172C54.3039 44.0836 52.7276 42.5403 51.5611 40.5879C50.426 38.6354 49.8586 36.3994 49.8586 33.8801C49.8586 31.3606 50.426 29.1404 51.5611 27.2194C52.7276 25.2669 54.3039 23.7238 56.2903 22.59C58.308 21.4564 60.5938 20.8895 63.1475 20.8895C65.6698 20.8895 67.924 21.4564 69.9102 22.59C71.9281 23.7238 73.5043 25.2669 74.6394 27.2194C75.7743 29.1404 76.3419 31.3606 76.3419 33.8801C76.3419 36.3994 75.7743 38.6354 74.6394 40.5879C73.5043 42.5403 71.9281 44.0836 69.9102 45.2172C67.924 46.3194 65.6698 46.8705 63.1475 46.8705ZM63.1475 41.013C64.3771 41.013 65.4806 40.7138 66.4579 40.1154C67.4353 39.4857 68.192 38.6354 68.7279 37.5646C69.2954 36.4624 69.5792 35.2341 69.5792 33.8801C69.5792 32.4944 69.2954 31.2662 68.7279 30.1954C68.192 29.0932 67.4353 28.2429 66.4579 27.6445C65.4806 27.0148 64.3771 26.6998 63.1475 26.6998C61.8864 26.6998 60.7672 27.0148 59.7899 27.6445C58.8124 28.2744 58.04 29.1248 57.4725 30.1954C56.9051 31.2662 56.637 32.4944 56.6686 33.8801C56.637 35.2341 56.9051 36.4624 57.4725 37.5646C58.04 38.6354 58.8124 39.4857 59.7899 40.1154C60.7672 40.7138 61.8864 41.013 63.1475 41.013Z" fill="#3768CE"/>
</g>
<defs>
<clipPath id="clip0_27_42">
<rect width="108.589" height="47.8528" fill="white"/>
</clipPath>
</defs>
</svg>
