<svg width="1503" height="499" viewBox="0 0 1503 499" fill="none" xmlns="http://www.w3.org/2000/svg">
<g clip-path="url(#clip0_2_15)">
<rect width="1503" height="499" fill="url(#paint0_linear_2_15)"/>
<g filter="url(#filter0_f_2_15)">
<ellipse cx="1338.39" cy="929.138" rx="366.002" ry="362.846" fill="#BEEABC"/>
</g>
<ellipse cx="1502.5" cy="249.5" rx="686.5" ry="680.5" fill="#88C9EC" fill-opacity="0.3"/>
<path d="M2188 249.5C2188 624.769 1881.1 929 1502.5 929C1123.9 929 817 624.769 817 249.5C817 -125.769 1123.9 -430 1502.5 -430C1881.1 -430 2188 -125.769 2188 249.5Z" stroke="white" stroke-opacity="0.5" stroke-width="2"/>
<ellipse cx="1502.5" cy="249.5" rx="566.14" ry="561.192" fill="#88C9EC" fill-opacity="0.3"/>
<path d="M2067.64 249.5C2067.64 558.877 1814.63 809.692 1502.5 809.692C1190.37 809.692 937.36 558.877 937.36 249.5C937.36 -59.8773 1190.37 -310.692 1502.5 -310.692C1814.63 -310.692 2067.64 -59.8773 2067.64 249.5Z" stroke="white" stroke-opacity="0.5" stroke-width="2"/>
<ellipse cx="1502.5" cy="249.5" rx="465.843" ry="461.771" fill="#88C9EC" fill-opacity="0.3"/>
<path d="M1967.34 249.5C1967.34 503.969 1759.23 710.271 1502.5 710.271C1245.77 710.271 1037.66 503.969 1037.66 249.5C1037.66 -4.96869 1245.77 -211.271 1502.5 -211.271C1759.23 -211.271 1967.34 -4.96869 1967.34 249.5Z" stroke="white" stroke-opacity="0.5" stroke-width="2"/>
<ellipse cx="1502.5" cy="249.5" rx="377.744" ry="374.443" fill="#88C9EC" fill-opacity="0.3"/>
<path d="M1879.24 249.5C1879.24 455.738 1710.58 622.943 1502.5 622.943C1294.42 622.943 1125.76 455.738 1125.76 249.5C1125.76 43.2616 1294.42 -123.943 1502.5 -123.943C1710.58 -123.943 1879.24 43.2616 1879.24 249.5Z" stroke="white" stroke-opacity="0.5" stroke-width="2"/>
<ellipse cx="1502.5" cy="249.5" rx="273.857" ry="271.463" fill="#88C9EC" fill-opacity="0.3"/>
<path d="M1775.36 249.5C1775.36 398.864 1653.2 519.963 1502.5 519.963C1351.8 519.963 1229.64 398.864 1229.64 249.5C1229.64 100.135 1351.8 -20.9633 1502.5 -20.9633C1653.2 -20.9633 1775.36 100.135 1775.36 249.5Z" stroke="white" stroke-opacity="0.5" stroke-width="2"/>
<ellipse cx="1502.5" cy="249.5" rx="148.099" ry="146.805" fill="#88C9EC" fill-opacity="0.5"/>
<path d="M1649.6 249.5C1649.6 330.018 1583.75 395.305 1502.5 395.305C1421.25 395.305 1355.4 330.018 1355.4 249.5C1355.4 168.983 1421.25 103.695 1502.5 103.695C1583.75 103.695 1649.6 168.983 1649.6 249.5Z" stroke="white" stroke-opacity="0.5" stroke-width="2"/>
<path d="M302 268.25V207H327.162C331.662 207 335.724 207.758 339.348 209.275C343.03 210.733 346.186 212.833 348.817 215.575C351.505 218.258 353.551 221.467 354.954 225.2C356.356 228.933 357.058 233.075 357.058 237.625C357.058 242.117 356.356 246.258 354.954 250.05C353.551 253.783 351.534 257.021 348.904 259.763C346.274 262.446 343.118 264.546 339.436 266.063C335.754 267.521 331.662 268.25 327.162 268.25H302ZM315.151 258.713L313.748 256.438H326.723C329.354 256.438 331.721 256 333.825 255.125C335.929 254.192 337.712 252.938 339.173 251.363C340.692 249.729 341.832 247.746 342.592 245.413C343.352 243.079 343.732 240.483 343.732 237.625C343.732 234.767 343.352 232.2 342.592 229.925C341.832 227.592 340.692 225.608 339.173 223.975C337.712 222.342 335.929 221.088 333.825 220.213C331.721 219.279 329.354 218.813 326.723 218.813H313.485L315.151 216.712V258.713Z" fill="black"/>
<path d="M365.445 268.25V221.963H377.456L377.895 236.837L375.791 233.775C376.492 231.383 377.632 229.225 379.21 227.3C380.788 225.317 382.629 223.771 384.733 222.663C386.896 221.554 389.146 221 391.484 221C392.477 221 393.442 221.088 394.377 221.263C395.312 221.438 396.101 221.642 396.744 221.875L393.413 235.525C392.711 235.175 391.864 234.883 390.87 234.65C389.877 234.358 388.854 234.213 387.802 234.213C386.399 234.213 385.084 234.475 383.856 235C382.687 235.467 381.665 236.167 380.788 237.1C379.911 237.975 379.21 239.025 378.684 240.25C378.216 241.475 377.982 242.817 377.982 244.275V268.25H365.445Z" fill="black"/>
<path d="M452.394 287.5V221.963H464.405L464.756 232.375L462.477 231.588C462.886 229.721 463.879 228 465.457 226.425C467.094 224.85 469.11 223.567 471.507 222.575C473.903 221.583 476.416 221.088 479.046 221.088C483.079 221.088 486.645 222.138 489.742 224.238C492.899 226.279 495.383 229.108 497.195 232.725C499.065 236.283 500 240.396 500 245.063C500 249.671 499.094 253.783 497.282 257.4C495.47 261.017 492.986 263.875 489.83 265.975C486.674 268.017 483.079 269.038 479.046 269.038C476.358 269.038 473.786 268.542 471.331 267.55C468.935 266.5 466.889 265.129 465.194 263.438C463.499 261.746 462.447 259.938 462.038 258.013L464.931 256.788V287.5H452.394ZM476.241 258.363C478.52 258.363 480.537 257.808 482.29 256.7C484.044 255.592 485.417 254.046 486.411 252.063C487.405 250.021 487.901 247.688 487.901 245.063C487.901 242.438 487.405 240.133 486.411 238.15C485.417 236.167 484.044 234.621 482.29 233.513C480.595 232.404 478.579 231.85 476.241 231.85C473.903 231.85 471.857 232.404 470.104 233.513C468.351 234.563 466.977 236.108 465.983 238.15C464.99 240.133 464.493 242.438 464.493 245.063C464.493 247.688 464.99 250.021 465.983 252.063C466.977 254.046 468.351 255.592 470.104 256.7C471.857 257.808 473.903 258.363 476.241 258.363Z" fill="black"/>
<path d="M416.536 291C411.802 291 407.564 289.979 403.824 287.938C400.141 285.838 397.219 282.979 395.056 279.363C392.952 275.746 391.9 271.604 391.9 266.938C391.9 262.271 392.952 258.158 395.056 254.6C397.219 250.983 400.141 248.125 403.824 246.025C407.564 243.925 411.802 242.875 416.536 242.875C421.212 242.875 425.391 243.925 429.073 246.025C432.814 248.125 435.736 250.983 437.84 254.6C439.944 258.158 440.996 262.271 440.996 266.938C440.996 271.604 439.944 275.746 437.84 279.363C435.736 282.979 432.814 285.838 429.073 287.938C425.391 289.979 421.212 291 416.536 291ZM416.536 280.15C418.815 280.15 420.861 279.596 422.673 278.488C424.485 277.321 425.888 275.746 426.881 273.762C427.933 271.721 428.459 269.446 428.459 266.938C428.459 264.371 427.933 262.096 426.881 260.113C425.888 258.071 424.485 256.496 422.673 255.388C420.861 254.221 418.815 253.638 416.536 253.638C414.198 253.638 412.123 254.221 410.311 255.388C408.499 256.554 407.067 258.129 406.015 260.113C404.963 262.096 404.467 264.371 404.525 266.938C404.467 269.446 404.963 271.721 406.015 273.762C407.067 275.746 408.499 277.321 410.311 278.488C412.123 279.596 414.198 280.15 416.536 280.15Z" fill="white"/>
<path d="M-665 354.031C-425.623 203.313 311.085 -6.22393 159.519 127.953C-148.385 400.534 307.54 439.841 895.678 255.482" stroke="url(#paint1_linear_2_15)"/>
</g>
<defs>
<filter id="filter0_f_2_15" x="472.385" y="66.2921" width="1732" height="1725.69" filterUnits="userSpaceOnUse" color-interpolation-filters="sRGB">
<feFlood flood-opacity="0" result="BackgroundImageFix"/>
<feBlend mode="normal" in="SourceGraphic" in2="BackgroundImageFix" result="shape"/>
<feGaussianBlur stdDeviation="250" result="effect1_foregroundBlur_2_15"/>
</filter>
<linearGradient id="paint0_linear_2_15" x1="142.205" y1="103.72" x2="123.823" y2="900.367" gradientUnits="userSpaceOnUse">
<stop offset="0.522774" stop-color="#3768CE"/>
<stop offset="1" stop-color="#88C9EC"/>
</linearGradient>
<linearGradient id="paint1_linear_2_15" x1="36.1357" y1="-107.008" x2="101.482" y2="432.096" gradientUnits="userSpaceOnUse">
<stop stop-color="white"/>
<stop offset="1" stop-color="white" stop-opacity="0"/>
</linearGradient>
<clipPath id="clip0_2_15">
<rect width="1503" height="499" fill="white"/>
</clipPath>
</defs>
</svg>
