<svg width="1503" height="678" viewBox="0 0 1503 678" fill="none" xmlns="http://www.w3.org/2000/svg">
<g clip-path="url(#clip0_2_15)">
<rect width="1503" height="678" fill="url(#paint0_linear_2_15)"/>
<g filter="url(#filter0_f_2_15)">
<ellipse cx="1338.39" cy="929.138" rx="366.002" ry="362.846" fill="#BEEABC"/>
</g>
<ellipse cx="1502.5" cy="368.5" rx="686.5" ry="680.5" fill="#88C9EC" fill-opacity="0.3"/>
<path d="M2188 368.5C2188 743.769 1881.1 1048 1502.5 1048C1123.9 1048 817 743.769 817 368.5C817 -6.76923 1123.9 -311 1502.5 -311C1881.1 -311 2188 -6.76923 2188 368.5Z" stroke="white" stroke-opacity="0.5" stroke-width="2"/>
<ellipse cx="1502.5" cy="368.5" rx="566.14" ry="561.192" fill="#88C9EC" fill-opacity="0.3"/>
<path d="M2067.64 368.5C2067.64 677.877 1814.63 928.692 1502.5 928.692C1190.37 928.692 937.36 677.877 937.36 368.5C937.36 59.1227 1190.37 -191.692 1502.5 -191.692C1814.63 -191.692 2067.64 59.1227 2067.64 368.5Z" stroke="white" stroke-opacity="0.5" stroke-width="2"/>
<ellipse cx="1502.5" cy="368.5" rx="465.843" ry="461.771" fill="#88C9EC" fill-opacity="0.3"/>
<path d="M1967.34 368.5C1967.34 622.969 1759.23 829.271 1502.5 829.271C1245.77 829.271 1037.66 622.969 1037.66 368.5C1037.66 114.031 1245.77 -92.2713 1502.5 -92.2713C1759.23 -92.2713 1967.34 114.031 1967.34 368.5Z" stroke="white" stroke-opacity="0.5" stroke-width="2"/>
<ellipse cx="1502.5" cy="368.5" rx="377.744" ry="374.443" fill="#88C9EC" fill-opacity="0.3"/>
<path d="M1879.24 368.5C1879.24 574.738 1710.58 741.943 1502.5 741.943C1294.42 741.943 1125.76 574.738 1125.76 368.5C1125.76 162.262 1294.42 -4.94263 1502.5 -4.94263C1710.58 -4.94263 1879.24 162.262 1879.24 368.5Z" stroke="white" stroke-opacity="0.5" stroke-width="2"/>
<ellipse cx="1502.5" cy="368.5" rx="273.857" ry="271.463" fill="#88C9EC" fill-opacity="0.3"/>
<path d="M1775.36 368.5C1775.36 517.864 1653.2 638.963 1502.5 638.963C1351.8 638.963 1229.64 517.864 1229.64 368.5C1229.64 219.135 1351.8 98.0366 1502.5 98.0366C1653.2 98.0366 1775.36 219.135 1775.36 368.5Z" stroke="white" stroke-opacity="0.5" stroke-width="2"/>
<ellipse cx="1502.5" cy="368.5" rx="148.099" ry="146.805" fill="#88C9EC" fill-opacity="0.5"/>
<path d="M1649.6 368.5C1649.6 449.018 1583.75 514.305 1502.5 514.305C1421.25 514.305 1355.4 449.018 1355.4 368.5C1355.4 287.983 1421.25 222.695 1502.5 222.695C1583.75 222.695 1649.6 287.983 1649.6 368.5Z" stroke="white" stroke-opacity="0.5" stroke-width="2"/>
<path d="M302 359.25V298H327.162C331.662 298 335.724 298.758 339.348 300.275C343.03 301.733 346.186 303.833 348.817 306.575C351.505 309.258 353.551 312.467 354.954 316.2C356.356 319.933 357.058 324.075 357.058 328.625C357.058 333.117 356.356 337.258 354.954 341.05C353.551 344.783 351.534 348.021 348.904 350.763C346.274 353.446 343.118 355.546 339.436 357.063C335.754 358.521 331.662 359.25 327.162 359.25H302ZM315.151 349.713L313.748 347.438H326.723C329.354 347.438 331.721 347 333.825 346.125C335.929 345.192 337.712 343.938 339.173 342.363C340.692 340.729 341.832 338.746 342.592 336.413C343.352 334.079 343.732 331.483 343.732 328.625C343.732 325.767 343.352 323.2 342.592 320.925C341.832 318.592 340.692 316.608 339.173 314.975C337.712 313.342 335.929 312.088 333.825 311.213C331.721 310.279 329.354 309.813 326.723 309.813H313.485L315.151 307.712V349.713Z" fill="black"/>
<path d="M365.445 359.25V312.963H377.456L377.895 327.837L375.791 324.775C376.492 322.383 377.632 320.225 379.21 318.3C380.788 316.317 382.629 314.771 384.733 313.663C386.896 312.554 389.146 312 391.484 312C392.477 312 393.442 312.088 394.377 312.263C395.312 312.438 396.101 312.642 396.744 312.875L393.413 326.525C392.711 326.175 391.864 325.883 390.87 325.65C389.877 325.358 388.854 325.213 387.802 325.213C386.399 325.213 385.084 325.475 383.856 326C382.687 326.467 381.665 327.167 380.788 328.1C379.911 328.975 379.21 330.025 378.684 331.25C378.216 332.475 377.982 333.817 377.982 335.275V359.25H365.445Z" fill="black"/>
<path d="M452.394 378.5V312.963H464.405L464.756 323.375L462.477 322.588C462.886 320.721 463.879 319 465.457 317.425C467.094 315.85 469.11 314.567 471.507 313.575C473.903 312.583 476.416 312.088 479.046 312.088C483.079 312.088 486.645 313.138 489.742 315.238C492.899 317.279 495.383 320.108 497.195 323.725C499.065 327.283 500 331.396 500 336.063C500 340.671 499.094 344.783 497.282 348.4C495.47 352.017 492.986 354.875 489.83 356.975C486.674 359.017 483.079 360.038 479.046 360.038C476.358 360.038 473.786 359.542 471.331 358.55C468.935 357.5 466.889 356.129 465.194 354.438C463.499 352.746 462.447 350.938 462.038 349.013L464.931 347.788V378.5H452.394ZM476.241 349.363C478.52 349.363 480.537 348.808 482.29 347.7C484.044 346.592 485.417 345.046 486.411 343.063C487.405 341.021 487.901 338.688 487.901 336.063C487.901 333.438 487.405 331.133 486.411 329.15C485.417 327.167 484.044 325.621 482.29 324.513C480.595 323.404 478.579 322.85 476.241 322.85C473.903 322.85 471.857 323.404 470.104 324.513C468.351 325.563 466.977 327.108 465.983 329.15C464.99 331.133 464.493 333.438 464.493 336.063C464.493 338.688 464.99 341.021 465.983 343.063C466.977 345.046 468.351 346.592 470.104 347.7C471.857 348.808 473.903 349.363 476.241 349.363Z" fill="black"/>
<path d="M416.536 382C411.802 382 407.564 380.979 403.824 378.938C400.141 376.838 397.219 373.979 395.056 370.363C392.952 366.746 391.9 362.604 391.9 357.938C391.9 353.271 392.952 349.158 395.056 345.6C397.219 341.983 400.141 339.125 403.824 337.025C407.564 334.925 411.802 333.875 416.536 333.875C421.212 333.875 425.391 334.925 429.073 337.025C432.814 339.125 435.736 341.983 437.84 345.6C439.944 349.158 440.996 353.271 440.996 357.938C440.996 362.604 439.944 366.746 437.84 370.363C435.736 373.979 432.814 376.838 429.073 378.938C425.391 380.979 421.212 382 416.536 382ZM416.536 371.15C418.815 371.15 420.861 370.596 422.673 369.488C424.485 368.321 425.888 366.746 426.881 364.762C427.933 362.721 428.459 360.446 428.459 357.938C428.459 355.371 427.933 353.096 426.881 351.113C425.888 349.071 424.485 347.496 422.673 346.388C420.861 345.221 418.815 344.638 416.536 344.638C414.198 344.638 412.123 345.221 410.311 346.388C408.499 347.554 407.067 349.129 406.015 351.113C404.963 353.096 404.467 355.371 404.525 357.938C404.467 360.446 404.963 362.721 406.015 364.762C407.067 366.746 408.499 368.321 410.311 369.488C412.123 370.596 414.198 371.15 416.536 371.15Z" fill="white"/>
<path d="M-667 436.031C-427.623 285.313 309.085 75.7761 157.519 209.953C-150.385 482.534 305.54 521.841 893.678 337.482" stroke="url(#paint1_linear_2_15)"/>
</g>
<defs>
<filter id="filter0_f_2_15" x="472.385" y="66.2921" width="1732" height="1725.69" filterUnits="userSpaceOnUse" color-interpolation-filters="sRGB">
<feFlood flood-opacity="0" result="BackgroundImageFix"/>
<feBlend mode="normal" in="SourceGraphic" in2="BackgroundImageFix" result="shape"/>
<feGaussianBlur stdDeviation="250" result="effect1_foregroundBlur_2_15"/>
</filter>
<linearGradient id="paint0_linear_2_15" x1="142.205" y1="140.926" x2="108.285" y2="1222.86" gradientUnits="userSpaceOnUse">
<stop offset="0.522774" stop-color="#3768CE"/>
<stop offset="1" stop-color="#88C9EC"/>
</linearGradient>
<linearGradient id="paint1_linear_2_15" x1="34.1357" y1="-25.0083" x2="99.4817" y2="514.096" gradientUnits="userSpaceOnUse">
<stop stop-color="white"/>
<stop offset="1" stop-color="white" stop-opacity="0"/>
</linearGradient>
<clipPath id="clip0_2_15">
<rect width="1503" height="678" fill="white"/>
</clipPath>
</defs>
</svg>
